<svg id="Layer_1" data-name="Layer 1" xmlns="http://www.w3.org/2000/svg" viewBox="0 0 1000 403.6"><defs><style>.cls-1{fill:#a41f35;}.cls-2{fill:#3e3935;}</style></defs><title>BRS-logo-4C</title><path id="Logomark" class="cls-1" d="M429.79,152.59,269.11,57.23V53.47l23.13,9.24a2.49,2.49,0,1,0,1.85-4.62l-21.24-8.48,21.24-8.48a2.49,2.49,0,1,0-1.85-4.62l-23.13,9.24V27.85h28l23.27,13.42-.28-3a13.54,13.54,0,0,0-.5-2.58l9.61,5.54-.28-3a14.59,14.59,0,0,0-.44-2.36l9.24,5.32-.28-3a21.31,21.31,0,0,0-5.76-12,21.39,21.39,0,0,0,5.76-12l.28-3-9.24,5.35a14.59,14.59,0,0,0,.44-2.36l.28-3-9.61,5.54a13.46,13.46,0,0,0,.5-2.55l.28-3L297.12,24.74h-28V12.12h4L266.14,0l-7,12.12h4V24.74H216.54l5.95-8.22-26.12,9.78,26.12,9.78-5.95-8.22h46.63V45.74L240,36.5a2.49,2.49,0,0,0-1.85,4.62l21.24,8.48-21.24,8.48A2.49,2.49,0,1,0,240,62.71l23.13-9.24v3.76L102.48,152.59,0,266.47H57.41l.1-.11V403.07h42.68V218.94l29.67-33L266.14,105.1,402.42,186l22.79,25.32h57.42Zm-112-121.5a20.4,20.4,0,0,0-1.21-2c-.27-.41-.58-.82-.9-1.22h4.57a17.08,17.08,0,0,1,4.11,5.7,11.43,11.43,0,0,1,.72,1.74Zm15.81,4.2-6.81-3.92a20.61,20.61,0,0,0-2.33-3.53h4.31A17.84,17.84,0,0,1,333.59,35.3Zm-6.85-14.06,6.85-4a17.59,17.59,0,0,1-4.84,7.46h-4.28a20.62,20.62,0,0,0,2.28-3.47Zm-9,.25,7.28-4.2a15.43,15.43,0,0,1-.68,1.74,16.83,16.83,0,0,1-4.14,5.72h-4.55c.31-.4.62-.8.89-1.2A17.69,17.69,0,0,0,317.78,21.48Zm-1.56-4.2c-.22.62-.47,1.31-.78,2a17.3,17.3,0,0,1-4,5.47h-8.06Zm-4.82,10.57a17.6,17.6,0,0,1,4,5.46,16.76,16.76,0,0,1,.81,2l-12.91-7.45Z"/><path class="cls-2" d="M178.69,238.24l8.18,8.18v32.71l-8.18,8.18,8.18,8.18v34.81l-8.18,8.18H136.1V238.24Zm-10.42,41.15,1.85-2V256.17l-1.85-2H153v25.19Zm0,16.22H153v26.51h15.3l1.85-2V297.45Z"/><path class="cls-2" d="M246.48,316.84H225.9l-4.48,21.63H204.28L228,238.24h16.35L268.1,338.46H251Zm-3.3-16.22-7-33.76-7,33.76Z"/><path class="cls-2" d="M288.68,338.46V238.24h43.25l8.18,8.18v44.84l-8.18,8.18,8.18,39H323.62l-8.18-39h-10v39Zm32.84-55.26,1.85-2V256.44l-1.85-1.85H305.42v28.62Z"/><path class="cls-2" d="M363.84,338.46V238.24h18.07l21.76,61.46V238.24h16.75V338.46H402.35L380.59,277v61.45Z"/><path class="cls-2" d="M490,338.46V238.24H533.3l8.18,8.18v44.84l-8.18,8.18,8.18,39H525l-8.18-39h-10v39Zm32.84-55.26,1.85-2V256.44l-1.85-1.85H506.79v28.62Z"/><path class="cls-2" d="M565.21,338.46V238.24h48v16.22H582v24.92h23.21v16.22H582v26.64h31.26v16.22Z"/><path class="cls-2" d="M677.83,317h-8.7l-16.22-46.16v67.65H636.16V238.24H657l16.48,47.34L690,238.24H710.8V338.46H694.05V270.81Z"/><path class="cls-2" d="M785.71,246.41v83.87l-8.18,8.18H743.77l-8.18-8.18V246.41l8.18-8.18h33.76Zm-18.86,8.18H754.19l-1.85,1.85v64l1.85,1.85h12.66l2-1.85v-64Z"/><path class="cls-2" d="M844.79,338.46H823.42L804.7,238.24h16.75l12.66,74.51,12.66-74.51h16.75Z"/><path class="cls-2" d="M911.78,316.84H891.21l-4.49,21.63H869.58l23.74-100.23h16.35l23.74,100.23H916.26Zm-3.29-16.22-7-33.76-7,33.76Z"/><path class="cls-2" d="M1000,338.46H954V238.24h16.88v84H1000Z"/><path class="cls-2" d="M167.23,392.41c0,6.27-6.21,11.14-14.54,11.14a29.47,29.47,0,0,1-14.89-3.63l2.29-4.75a27.71,27.71,0,0,0,12.13,3c4.57,0,8.73-2.28,8.73-5.86,0-11.14-22.8-4.92-22.8-19.64,0-7.09,5.33-11.31,12.78-11.31A34.21,34.21,0,0,1,165,364.68l-2.23,5C160,368.55,155,367,152.29,367c-4.34,0-7.8.88-8.09,5.22C144.2,381.68,167.23,376.29,167.23,392.41Z"/><path class="cls-2" d="M194.3,385.49V397.8h21v5.27h-27V362h27v5.28h-21v12.89h16.41v5.28Z"/><path class="cls-2" d="M242.28,403.08h-5.92V362h15.18c11,0,14.24,7.62,14.24,12.84a13.07,13.07,0,0,1-9.14,12.25l7.5,15.94H257.7l-7.15-15.24h-8.27Zm17.47-28.19c0-2.64-1.41-7.62-7.91-7.62h-9.55V382.5h9.79A7.42,7.42,0,0,0,259.75,374.88Z"/><path class="cls-2" d="M311.37,362h6.56l-18.17,41.44h-.59L281,362h6.56l11.9,28.6Z"/><path class="cls-2" d="M343.3,403.08h-6V362h6Z"/><path class="cls-2" d="M395.92,371.89a15.9,15.9,0,0,0-11.25-5.1c-12.37,0-14.18,11.78-14.18,15.71s1.82,15.65,14.18,15.65c4.75,0,9-2.52,11.61-4.92l3.46,4.4c-3.69,3.69-8.38,6-15.06,6-15.65,0-20.28-12.31-20.28-21.1,0-8.56,4.63-21,20.28-21,7,0,11.55,2.58,15.18,6.62Z"/><path class="cls-2" d="M426.91,385.49V397.8h21v5.27h-27V362h27v5.28h-21v12.89h16.41v5.28Z"/><path class="cls-2" d="M496.06,392.41c0,6.27-6.21,11.14-14.54,11.14a29.48,29.48,0,0,1-14.89-3.63l2.29-4.75a27.71,27.71,0,0,0,12.13,3c4.57,0,8.73-2.28,8.73-5.86,0-11.14-22.8-4.92-22.8-19.64,0-7.09,5.33-11.31,12.78-11.31a34.21,34.21,0,0,1,14.07,3.28l-2.23,5c-2.76-1.11-7.79-2.64-10.49-2.64-4.34,0-7.8.88-8.09,5.22C473,381.68,496.06,376.29,496.06,392.41Z"/></svg>