<svg id="Layer_1" data-name="Layer 1" xmlns="http://www.w3.org/2000/svg" viewBox="0 0 153.23 252.34"><defs><style>.cls-1{fill:#ac0033;}.cls-2{fill:#c3002f;}.cls-3{fill:#d70036;}</style></defs><title>new-england-map</title><path class="cls-1" d="M82,211.15a5.94,5.94,0,0,1-2-.11c-.64-.36-1.52-2.24-2.19-1.93s.51,2.2.35,2.92c-.09.42-.05,2.35-.57,2.62-1.28.67,1.13,1.72,1.29,2.38s0,1.3.22,2c.19.55-.64,1.38.86,2.16.54.28-.69,1.83-.43,2.38.78,1.63-6.48,4.32-6.48,4.32l-1.49,2.58a10.5,10.5,0,0,0-.88-2c-.31-.36-.7-.9-.55-1.06a5.3,5.3,0,0,1,1.65-.61l-1.1-4.88-4.33-17.5L74,202.29l2.16,1.51L76,205l2.29,1.65.21,1.73Z"/><path class="cls-2" d="M51.32,207.72l15-3.29,5.44,22.38s-1.61.28-1.65.73,1,1.36,1.22,1.86a5.62,5.62,0,0,1,.22,1.08l-1.3-.43-4.54,1.51-4.54,2.81s-1.29.67-1.69.47-.55-1.32-.69-1.77c-.19-.64-.46-3.05-1.08-2.43s-.11,0,0,.95c0,.32,1.07,3.83.86,4.08-1.12,1.38-3.12.63-3.12.63s-6.92,2.22-7.83,2.83a21.35,21.35,0,0,0-2.16,2.09s-2.51-.26-2.51-1.51a9.92,9.92,0,0,1-.08,2.42,9.24,9.24,0,0,1-3.52,3.48c-.55.28-1.87.28-2.4.6a14,14,0,0,0-2.11,2.39,25.47,25.47,0,0,0-3.17,2.09,7.7,7.7,0,0,1-2,1c-.7.23-2.88.64-2.88.64L24.42,249l4.67-4.54-2.73-5-4-24.56,16.29-4.13,1.16,2,2.32-1.51.29-1.78,5.37-1.08s1.45.86,2,.76S51.32,207.72,51.32,207.72Z"/><path class="cls-1" d="M45.22,121.81A17.32,17.32,0,0,0,47,118.57a9.61,9.61,0,0,0-.65-4.32,13.8,13.8,0,0,0-1.73-2.16,8,8,0,0,1-1.43-2.38c-.11-1.49,2.3-5.54,2.3-5.54s-1.56-1.35-1.51-2.24a3.53,3.53,0,0,1,.65-1.08L8.94,110.15,0,112.66s1.27.66,1.43,1.08-.35,1.73-.35,1.73,2.25,1.71,2.42,2.38-1.12,2.38-1.12,2.38a4.85,4.85,0,0,1,1,1.25,6.34,6.34,0,0,1-.46,2s2.9,3.27,3,4.66c.06.62-.87,1.71-.92,2.33-.07,1,1.12,2.84,1.27,3.83.29,2-.33,3.64-.17,4.17s1.68,6,1.68,6l1.3,6.86a31.21,31.21,0,0,1,1.3,4.54,26,26,0,0,1-.44,3.89s.85,1.77,1.08,2.38c.7,1.84.83-1.93,1.08-2.59,1.08-2.9,3.46,3,3.46,3l5,22.68a5.43,5.43,0,0,0-.22,1.51c.15.64,1.75,1.08,2,1.68l19.47-3.54-2.16-2.16-1.29-2.59s-2.4-1.2-1-1.59c2-.56,2-2.56,2.08-3.16.23-1.69-1-5-1.3-6.7-.17-1.12.21-3.42,0-4.54-.33-1.73-2-5-1.94-6.78,0-.83,1-2.34,1.08-3.16s-.59-2.6-.43-3.46a11.39,11.39,0,0,1,1.29-2.38l.65-2.16-.21-2.38.86-2.16L39,139.31l.87-3.89-1.29-4.54a7.22,7.22,0,0,1-.22-2.38C39.15,126.26,45.22,121.81,45.22,121.81Z"/><path class="cls-3" d="M93.4,197.54c.3.52,2.16,1.08,2.16,1.08s1,1.44,1.61,2.12a19,19,0,0,0,2.46,1.84l1.54,1.66,2.38-.22,2.16.65,4.54-3.46,1.95-2.16-2-4.58-.14,2s-.76-3.21-1.5-3.77c-.49-.37-2.63,0-2.63,0v-1.86a23.89,23.89,0,0,1,3.16.65c.68.27,1.71,2.37,2.38,3a12.83,12.83,0,0,1,2,3.5c.36.89,1.37,2.65,1.29,3.61-.06.67-1.29,5.27-1.29,5.27l.07-4.69-5.36,5.34-2.88.93-2.2,2.44L100.53,212l-3.27.86s1.35-3.46,1-4.54a4.43,4.43,0,0,0-2.19-2.16c-.47,0-.73,1-1.16,1.51a12.65,12.65,0,0,0-1.08,2.16,13,13,0,0,0-2.16,1.73c-.56.79-.39,2.31-1.29,2.67-.59.24-1.53-.29-2.16-.34s-1.09.6-1.72.2a4.44,4.44,0,0,1-1.08-1.24c-.31-.41-1.66-1.22-1.94-1.65s.73-1.09.21-1.38-1.73,1.3-1.73,1.3l-3.46-2.81-.21-1.73L76,205l.14-1.16L74,202.29l-22.64,5.59s-1,1.33-1.54,1.43-2-.76-2-.76l-5.37,1.08-.29,1.78-2.32,1.51-1.16-2-16.29,4-2.21-1.78L21.39,190s1.52-1.19,1.25-1.89l19.56-3.36,28.73-6.7a6.18,6.18,0,0,1,.81-2.24,6,6,0,0,1,2.29-.38s0-2.23.5-2.67,2.2,0,2.2,0-1.24-1.41-1-1.86,2.25-1,2.65-1.15c.63-.19,1.53-1.41,2.32-1.23.54.12.56,2.16.56,2.16A6,6,0,0,1,83,171.84c.29.47.15,1.69.43,2.16a10.51,10.51,0,0,0,2.16,1.73l2.16-.43s1.37-1.77,1.88-1.47c.36.21-.2,1.24-.16,1.65s.95.93.87,1.32c-.29,1.57-3.73,2.41-3.73,2.41s-2.7.88-3,1.7c-.16.47.65.49.43.94s-1.82,1.54-2.11,2.06c-.2.36.49,1.17.43,1.57-.08.61-1.29,1.38-1.57,1.91s1.52,2.16,1.52,2.16l2.16,1.3,3.91.24,2.49.12s2.25,1.45,2.67,2.88C93.86,194.92,93,196.79,93.4,197.54Z"/><path class="cls-2" d="M51.86,88.58S50.23,90.49,50.7,91c.95.95-2.44.64-2.44.64s-.12,0-1.44-2c-.25-.38-.86-.86-1.81,1.25A23.52,23.52,0,0,0,43.67,95a31.83,31.83,0,0,0,1.07,5.85s-.84.91-.87,1.3c-.07.89,1.51,2.24,1.51,2.24s-2.41,4-2.29,5.54a8.05,8.05,0,0,0,1.43,2.38,13.79,13.79,0,0,1,1.73,2.16,10.26,10.26,0,0,1,.65,4.32,15.18,15.18,0,0,1-1.73,3.24s-6.07,4.44-6.91,6.7a7.22,7.22,0,0,0,.22,2.38l1.29,4.54-.86,3.89.43,2.38-.87,2.16.21,2.38L38,148.63A11.5,11.5,0,0,0,36.74,151c-.16.86.57,2.6.43,3.46s-1.09,2.33-1.08,3.16c0,1.76,1.75,4.78,1.94,6.78.11,1.13-.17,3.41,0,4.54.25,1.69,1.3,5,1.3,6.7,0,1.16.42.66-2.08,3.16-.46.46,1,1.59,1,1.59L39.55,183l2.22,1.92,29.37-7a6.16,6.16,0,0,1,.81-2.24,6,6,0,0,1,2.3-.38s0-2.23.5-2.67,2.2,0,2.2,0-1.24-1.41-1-1.86,2.25-1,2.65-1.15c.63-.19,1.53-1.41,2.32-1.23.54.12.56,2.16.56,2.16a32.44,32.44,0,0,1-.27-3.82c.09-1.16,2-4.54,1.07-4.54-1.24,0-3.83-1.32-4.32-2.46-.31-.73.2-2.49-.21-3.16-.89-1.43-4.51-2.63-5.37-4.08-.73-1.23-.89-5.64-.89-5.64Z"/><path class="cls-3" d="M151.64,80a10.42,10.42,0,0,1-2.5,2.51l-3.45-.43s.89,2.33.35,2.87-2.17-.79-2.48-.11,1.24,1.87.6,2.32c-.41.29-1.54-.85-1.95-.55s.42,1.82,0,2.16-1.78-.39-2.16,0,0,1.88-.43,2.16-1.91-.6-2.37-.22c-1,.81-.49,5-1.74,4.75-.61-.1,0-2.39-.65-2.38s-.55,2.32-1.21,2.38c-.36,0-.51-1.22-.87-1.16-1.09.18-.3,4.4-.3,4.4a15.07,15.07,0,0,0-2.26-2.57c-1.12-.69-4.17-2.26-5.08-1.32-.38.4.43,2.16.43,2.16l-2.16,1.31-1.95-1.52a11.93,11.93,0,0,1,.22,2.16,14.63,14.63,0,0,0-.65,2.38c.08.9,1.45,3,.73,3.54s-2.37-1.25-3.24-1.3-3,1.74-3.54,1c-.28-.37.87-1.1,1.08-1.51s1.67-3,.22-2.38c-.51.22-1.77.82-2.16.43s.5-1.61.43-2.16-2.88-3.31-1.73-2.16c.65.65,0,2.85-.45,3.67a6.3,6.3,0,0,1-2.14,1.94c-1.24.62.93,1.65,1.3,2.16a6.32,6.32,0,0,1,.34,4.12c-.31.95-2.06,2.38-2.12,3.38s1.73,2,1.79,2.88-1.43,1.82-1.73,2.25a13.28,13.28,0,0,0-.86,3.58s-3.58.64-4.4,1.46-1.43,4.16-1.43,4.16a9,9,0,0,1-1.73-1.3,8.06,8.06,0,0,1-.65-2.38c-.08-.43-.21-1.73-.21-1.73a23.07,23.07,0,0,0-.22,3.38,24,24,0,0,0,1.08,3.32A7.34,7.34,0,0,1,99,126.58c-.34-.43-.28-1.6-.35-2.16,0,0-1.62.55-1.81,1.3s1.73,2.38,1.73,2.38l-.86,2.16-3.24-6.34.22-3.38-1.08,2.16s-.7,1.93-.21,2.16a2.79,2.79,0,0,0,.86.14l3,5.91s-1,1.33-1.64,1.38,0-1.25-.73-1.36c-.87-.13-2,2.38-2.81,2.14-.66-.18-.4-2.41-1.08-2.52-1.75-.27-3.5,4-3.46,6.17a7.5,7.5,0,0,0,1.08,2.18l-3,4.54s1.5,1.73,1.08,2.16c-1.92,1.92-1.35,3.06-1.73,4.1-.26.72-1.82,1.48-2.16,2.16a3.74,3.74,0,0,0,0,2.16,9.57,9.57,0,0,0,1.65,2.38c.83.83-1.87,2.38-1.87,2.38s.74,2.47.16,3.15c-.81.94-4.44-.93-4.93-2.07-.31-.73.2-2.49-.21-3.16-.89-1.43-4.51-2.63-5.37-4.08-.73-1.23-.89-5.64-.89-5.64L51.69,88.64s1.65-2.18,1.31-2.89c-.87-1.84,2.16,1.08,2.16,1.08s2.5,1.58,2.16.83c-1.32-3-.43-3.86-.43-3.86l.43-2.16s2.3.14,2.81.65c.78.78-2.39-3.25-2.38-4.54,0-2.79,5.62-6.72,5.83-9.5,0-.51-1.06-1.22-1.08-1.73,0-1.35,2.71-3.4,2.59-4.75-.08-.92-1.78-2.25-1.94-3.16s.52-2.53,0-3.54c-.36-.7-2.16-1.55-2.3-2.16-.38-1.65,1.45-5.12,2.08-6.7A30,30,0,0,1,65.89,42L63.37,33.7,73.74,3l4.32.78s.73,3.85,1.29,4.61a3,3,0,0,0,1.59.87s3.59,0,3.59.65c0,1.23,1.57-1.19,2.16-1.67s1.69-.92,2.16-1.35c.82-.76,2-2.85,2.95-3.38.48-.25,1.41-.17,2-.81.32-.34.54-1.32.87-1.65A9.65,9.65,0,0,1,97.29,0a58.38,58.38,0,0,1,6.91,2.59c1.21.7,3.26,2.67,4.54,3.24a12.91,12.91,0,0,0,1.95.43l12.53,37.15a8.8,8.8,0,0,0,0,2.16c.2.6,1.16,1.54,1.29,2.16a15.52,15.52,0,0,1-.21,1.94,11.78,11.78,0,0,0,.65,2.16s1.26-1.11,1.57-.8a9.28,9.28,0,0,0,2.19,1.65,25.07,25.07,0,0,0,3.37,0,5.91,5.91,0,0,1,1.94-.37c.46.06,1.41.63,1.51,1.08s-.65,1.76-.65,2.38a10.55,10.55,0,0,0,.65,2.16s2.14,1.39,2.36,2.16c.17.59-.75,1.77-.64,2.38s1,1,1.3,1.38c.55.77,1.61,3,2.38,2.94s1.1-2.57,1.73-1.94c1.63,1.63,1.42-.3,1.73,0a48.49,48.49,0,0,0,6,5.18l-2.81,3.67,2.17,1.94,1.72-2.16,1.73,1.08S152.07,79,151.64,80Z"/></svg>